# xmcd
#
# Track frame offsets:
#	150
#	15022
#	29181
#	42713
#	57168
#	77177
#	93586
#	105084
#	117697
#	134709
#	148947
#	163336
#	179365
#	195194
#	210816
#	224979
#	240744
#	260664
#	274788
#	289064
#
# Disc length: 4085 seconds
#
# Revision: 0
# Processed by: cddbd v1.5.2PL0 Copyright (c) Steve Scherf et al.
# Submitted via: EasyCDDAExtractor 16.0.8.2
#
DISCID=380ff314
DTITLE=Συλλογικός δίσκος - Όλα τα ρεμπέτικα 24
DYEAR=2008
DGENRE=Ρεμπέτικη
TTITLE0=Καζαντζίδης Στέλιος - Πέφτουν της βροχής οι στάλες [Β. Τσιτσάνης]
TTITLE1=Μπέλλου Σωτηρία - Δεν κράτησα, προδόθηκα [Γερ. Κλουβάτος]
TTITLE2=Γλυκερία - Από ξένο τόπο [παρ. Σμύρνης, δ. Σ. Φωτιάδης]
TTITLE3=Ζαγοραίος Σπύρος - Ξαβεριώτισσα [Δημ. Γκόγκος]
TTITLE4=Μαριώ - Μανταλένα [παραδοσιακό]
TTITLE5=Γκολές Μπάμπης - Ο μαχαραγιάς [Σ. Τζοανάκος-Ν. Γκούμας]
TTITLE6=Ιακωβίδης Αγάθωνας - Όπου Γιώργος και μάλαμα [Γ. Μητσάκης]
TTITLE7=Καλημέρη Λιζέτα - Φόρα τα μαύρα, φόρα τα [Κ. Καρίπης-Γ. Πετροπουλέας]
TTITLE8=Ντάλη Καίτη - Πριγκιπομαστούρηδες [Β. Τσιτσάνης]
TTITLE9=Γιουλάκης Νίκος - Ο τραυματίας [Β. Τσιτσάνης]
TTITLE10=Κυριαζής Γιάννης - Όλοι οι ρεμπέτες του ντουνιά [Μ. Βαμβακάρης]
TTITLE11=Δασκαλάκης Μιχάλης - Η αλεπού [Ελένη Δασκαλάκη]
TTITLE12=Κοντογιάννης Δημήτρης - Ηλιοβασίλεμα σωστό [Γ. Λαύκας-Κ. Μάνεσης]
TTITLE13=Ευσταθίου Δημήτρης - Δουλεύω στην μπουλτόζα [Δ. Ευσταθίου-Π. Τσαουσάκ
TTITLE13=ης]
TTITLE14=Γενίτσαρης Μιχάλης-Γλυκερία - Του Πειραιά τα δειλινά [Μ. Γενίτσαρης]
TTITLE15=Μουφλουζέλης Γιώργος - Θα διώξω κάθε μπλέξιμο [Γ. Μουφλουζέλης]
TTITLE16=Άνευ ερμηνευτού - Αζιζιές [ορχηστρ., αγνώστου, Απόδημη κομπανία]
TTITLE17=Μπίνης Τάκης - Ντουμάνιασε ο ουρανός [Τ. Μπίνης]
TTITLE18=Αμπατζή Ρίτα - Το φλιτζάνι του Γιάννη [Μαν. Χρυσαφάκης]
TTITLE19=Παπαγκίκα Μαρίκα - Στη φυλακή με βάλανε [παραδοσιακό]
EXTD=
EXTT0=
EXTT1=
EXTT2=
EXTT3=
EXTT4=
EXTT5=
EXTT6=
EXTT7=
EXTT8=
EXTT9=
EXTT10=
EXTT11=
EXTT12=
EXTT13=
EXTT14=
EXTT15=
EXTT16=
EXTT17=
EXTT18=
EXTT19=
PLAYORDER=
